<?xml version="1.0" encoding="UTF-8"?>
<svg width="3524px" height="732px" viewBox="0 0 3524 732" version="1.1" xmlns="http://www.w3.org/2000/svg" xmlns:xlink="http://www.w3.org/1999/xlink">
    <title>dark</title>
    <defs>
        <path d="M152,0 C68.0527,0 0,68.0527 0,152 L0,304 C0,471.895 136.105,608 304,608 C471.895,608 608,471.895 608,304 C608,136.105 471.895,0 304,0 L152,0 Z M152,91.2 C118.421,91.2 91.2,118.421 91.2,152 C91.2,185.579 118.421,212.8 152,212.8 C185.579,212.8 212.8,185.579 212.8,152 C212.8,118.421 185.579,91.2 152,91.2 Z" id="path-1"></path>
        <linearGradient x1="0%" y1="0%" x2="50%" y2="100%" id="linearGradient-3">
            <stop stop-color="#400072" offset="0%"></stop>
            <stop stop-color="#00F0FF" offset="100%"></stop>
        </linearGradient>
        <linearGradient x1="50.6322625%" y1="101.21326%" x2="50%" y2="-1.84551948%" id="linearGradient-4">
            <stop stop-color="#000000" offset="0%"></stop>
            <stop stop-color="#FFFFFF" stop-opacity="0.63" offset="100%"></stop>
        </linearGradient>
    </defs>
    <g id="Page-1" stroke="none" stroke-width="1" fill="none" fill-rule="evenodd">
        <g id="dark">
            <g id="Sip" transform="translate(0, 62)">
                <mask id="mask-2" fill="white">
                    <use xlink:href="#path-1"></use>
                </mask>
                <g id="Shape"></g>
                <g id="Group" mask="url(#mask-2)">
                    <polygon id="Path" fill="#00B2FF" fill-rule="nonzero" points="304 304 608 304 608 608 304 608"></polygon>
                    <polygon id="Path" fill="#007BFF" fill-rule="nonzero" points="0 304 304 304 304 608 0 608"></polygon>
                    <polygon id="Path" fill="#007BFF" fill-rule="nonzero" points="304 0 608 0 608 304 304 304"></polygon>
                    <polygon id="Path" fill="#1447FD" fill-rule="nonzero" points="0 0 304 0 304 304 0 304"></polygon>
                    <g opacity="0.8" transform="translate(22.8, 22.8)" fill="url(#linearGradient-3)" fill-rule="nonzero" id="Path">
                        <path d="M-1.0658141e-14,129.2 C-1.0658141e-14,57.8447 57.8448,-1.0658141e-14 129.2,-1.0658141e-14 C179.867,-1.0658141e-14 230.533,-1.0658141e-14 281.2,-1.0658141e-14 C436.503,-1.0658141e-14 562.4,125.898 562.4,281.2 C562.4,436.503 436.503,562.4 281.2,562.4 C125.898,562.4 -1.0658141e-14,436.503 -1.0658141e-14,281.2 L-1.0658141e-14,129.2 Z" style="mix-blend-mode: hard-light;"></path>
                    </g>
                    <path d="M22.8,151.976 C22.8,80.6206 80.6448,22.8 152,22.8 L304,22.8 C459.302,22.8 585.2,148.698 585.2,304 C585.2,459.302 459.302,585.2 304,585.2 C148.698,585.2 22.8,459.302 22.8,304 C22.8,259.729 22.8,202.926 22.8,151.976 Z" id="Path" fill="#FFFFFF" fill-rule="nonzero" style="mix-blend-mode: multiply;"></path>
                    <path d="M152,11.4 C74.3516,11.4 11.4,74.3218 11.4,151.976 L11.4,152.274 L11.4,152.573 L11.4,152.872 L11.4,153.171 L11.4,153.47 L11.4,153.769 L11.4,154.069 L11.4,154.368 L11.4,154.668 L11.4,154.968 L11.4,155.268 L11.4,155.568 L11.4,155.868 L11.4,156.168 L11.4,156.468 L11.4,156.769 L11.4,157.07 L11.4,157.37 L11.4,157.671 L11.4,157.972 L11.4,158.273 L11.4,158.575 L11.4,158.876 L11.4,159.177 L11.4,159.479 L11.4,159.781 L11.4,160.082 L11.4,160.384 L11.4,160.686 L11.4,160.988 L11.4,161.291 L11.4,161.593 L11.4,161.896 L11.4,162.198 L11.4,162.501 L11.4,162.804 L11.4,163.106 L11.4,163.409 L11.4,163.712 L11.4,164.016 L11.4,164.319 L11.4,164.622 L11.4,164.926 L11.4,165.229 L11.4,165.533 L11.4,165.837 L11.4,166.141 L11.4,166.445 L11.4,166.749 L11.4,167.053 L11.4,167.357 L11.4,167.662 L11.4,167.966 L11.4,168.271 L11.4,168.575 L11.4,168.88 L11.4,169.185 L11.4,169.49 L11.4,169.794 L11.4,170.1 L11.4,170.405 L11.4,170.71 L11.4,171.015 L11.4,171.321 L11.4,171.626 L11.4,171.932 L11.4,172.237 L11.4,172.543 L11.4,172.849 L11.4,173.155 L11.4,173.461 L11.4,173.767 L11.4,174.073 L11.4,174.379 L11.4,174.685 L11.4,174.991 L11.4,175.298 L11.4,175.604 L11.4,175.911 L11.4,176.217 L11.4,176.524 L11.4,176.831 L11.4,177.137 L11.4,177.444 L11.4,177.751 L11.4,178.058 L11.4,178.365 L11.4,178.672 L11.4,178.98 L11.4,179.287 L11.4,179.594 L11.4,179.901 L11.4,180.209 L11.4,180.516 L11.4,180.824 L11.4,181.131 L11.4,181.439 L11.4,181.747 L11.4,182.054 L11.4,182.362 L11.4,182.67 L11.4,182.978 L11.4,183.286 L11.4,183.594 L11.4,183.902 L11.4,184.21 L11.4,184.518 L11.4,184.826 L11.4,185.135 L11.4,185.443 L11.4,185.751 L11.4,186.06 L11.4,186.368 L11.4,186.677 L11.4,186.985 L11.4,187.294 L11.4,187.602 L11.4,187.911 L11.4,188.219 L11.4,188.528 L11.4,188.837 L11.4,189.145 L11.4,189.454 L11.4,189.763 L11.4,190.072 L11.4,190.381 L11.4,190.69 L11.4,190.999 L11.4,191.308 L11.4,191.617 L11.4,191.926 L11.4,192.235 L11.4,192.544 L11.4,192.853 L11.4,193.162 L11.4,193.471 L11.4,193.78 L11.4,194.089 L11.4,194.399 L11.4,194.708 L11.4,195.017 L11.4,195.326 L11.4,195.636 L11.4,195.945 L11.4,196.254 L11.4,196.564 L11.4,196.873 L11.4,197.182 L11.4,197.492 L11.4,197.801 L11.4,198.11 L11.4,198.42 L11.4,198.729 L11.4,199.039 L11.4,199.348 L11.4,199.658 L11.4,199.967 L11.4,200.276 L11.4,200.586 L11.4,200.895 L11.4,201.205 L11.4,201.514 L11.4,201.824 L11.4,202.133 L11.4,202.443 L11.4,202.752 L11.4,203.061 L11.4,203.371 L11.4,203.68 L11.4,203.99 L11.4,204.299 L11.4,204.609 L11.4,204.918 L11.4,205.227 L11.4,205.537 L11.4,205.846 L11.4,206.156 L11.4,206.465 L11.4,206.774 L11.4,207.084 L11.4,207.393 L11.4,207.702 L11.4,208.012 L11.4,208.321 L11.4,208.63 L11.4,208.939 L11.4,209.249 L11.4,209.558 L11.4,209.867 L11.4,210.176 L11.4,210.485 L11.4,210.795 L11.4,211.104 L11.4,211.413 L11.4,211.722 L11.4,212.031 L11.4,212.34 L11.4,212.649 L11.4,212.958 L11.4,213.267 L11.4,213.575 L11.4,213.884 L11.4,214.193 L11.4,214.502 L11.4,214.811 L11.4,215.119 L11.4,215.428 L11.4,215.737 L11.4,216.045 L11.4,216.354 L11.4,216.662 L11.4,216.971 L11.4,217.279 L11.4,217.588 L11.4,217.896 L11.4,218.204 L11.4,218.513 L11.4,218.821 L11.4,219.129 L11.4,219.437 L11.4,219.745 L11.4,220.053 L11.4,220.361 L11.4,220.669 L11.4,220.977 L11.4,221.285 L11.4,221.593 L11.4,221.901 L11.4,222.208 L11.4,222.516 L11.4,222.824 L11.4,223.131 L11.4,223.438 L11.4,223.746 L11.4,224.053 L11.4,224.361 L11.4,224.668 L11.4,224.975 L11.4,225.282 L11.4,225.589 L11.4,225.896 L11.4,226.203 L11.4,226.51 L11.4,226.817 L11.4,227.123 L11.4,227.43 L11.4,227.737 L11.4,228.043 L11.4,228.35 L11.4,228.656 L11.4,228.962 L11.4,229.269 L11.4,229.575 L11.4,229.881 L11.4,230.187 L11.4,230.493 L11.4,230.799 L11.4,231.104 L11.4,231.41 L11.4,231.716 L11.4,232.021 L11.4,232.327 L11.4,232.632 L11.4,232.937 L11.4,233.243 L11.4,233.548 L11.4,233.853 L11.4,234.158 L11.4,234.463 L11.4,234.767 L11.4,235.072 L11.4,235.377 L11.4,235.681 L11.4,235.986 L11.4,236.29 L11.4,236.594 L11.4,236.899 L11.4,237.203 L11.4,237.507 L11.4,237.81 L11.4,238.114 L11.4,238.418 L11.4,238.721 L11.4,239.025 L11.4,239.328 L11.4,239.632 L11.4,239.935 L11.4,240.238 L11.4,240.541 L11.4,240.844 L11.4,241.147 L11.4,241.449 L11.4,241.752 L11.4,242.054 L11.4,242.357 L11.4,242.659 L11.4,242.961 L11.4,243.263 L11.4,243.565 L11.4,243.867 L11.4,244.168 L11.4,244.47 L11.4,244.771 L11.4,245.073 L11.4,245.374 L11.4,245.675 L11.4,245.976 L11.4,246.277 L11.4,246.578 L11.4,246.878 L11.4,247.179 L11.4,247.479 L11.4,247.779 L11.4,248.08 L11.4,248.38 L11.4,248.68 L11.4,248.979 L11.4,249.279 L11.4,249.578 L11.4,249.878 L11.4,250.177 L11.4,250.476 L11.4,250.775 L11.4,251.074 L11.4,251.373 L11.4,251.671 L11.4,251.97 L11.4,252.268 L11.4,252.566 L11.4,252.865 L11.4,253.162 L11.4,253.46 L11.4,253.758 L11.4,254.055 L11.4,254.353 L11.4,254.65 L11.4,254.947 L11.4,255.244 L11.4,255.541 L11.4,255.837 L11.4,256.134 L11.4,256.43 L11.4,256.727 L11.4,257.023 L11.4,257.318 L11.4,257.614 L11.4,257.91 L11.4,258.205 L11.4,258.501 L11.4,258.796 L11.4,259.091 L11.4,259.386 L11.4,259.68 L11.4,259.975 L11.4,260.269 L11.4,260.564 L11.4,260.858 L11.4,261.151 L11.4,261.445 L11.4,261.739 L11.4,262.032 L11.4,262.326 L11.4,262.619 L11.4,262.912 L11.4,263.204 L11.4,263.497 L11.4,263.789 L11.4,264.082 L11.4,264.374 L11.4,264.666 L11.4,264.957 L11.4,265.249 L11.4,265.54 L11.4,265.832 L11.4,266.123 L11.4,266.414 L11.4,266.704 L11.4,266.995 L11.4,267.285 L11.4,267.575 L11.4,267.865 L11.4,268.155 L11.4,268.445 L11.4,268.734 L11.4,269.024 L11.4,269.313 L11.4,269.602 L11.4,269.89 L11.4,270.179 L11.4,270.467 L11.4,270.756 L11.4,271.044 L11.4,271.331 L11.4,271.619 L11.4,271.906 L11.4,272.194 L11.4,272.481 L11.4,272.768 L11.4,273.054 L11.4,273.341 L11.4,273.627 L11.4,273.913 L11.4,274.199 L11.4,274.485 L11.4,274.77 L11.4,275.055 L11.4,275.34 L11.4,275.625 L11.4,275.91 L11.4,276.195 L11.4,276.479 L11.4,276.763 L11.4,277.047 L11.4,277.33 L11.4,277.614 L11.4,277.897 L11.4,278.18 L11.4,278.463 L11.4,278.746 L11.4,279.028 L11.4,279.31 L11.4,279.592 L11.4,279.874 L11.4,280.156 L11.4,280.437 L11.4,280.718 L11.4,280.999 L11.4,281.28 L11.4,281.56 L11.4,281.84 L11.4,282.121 L11.4,282.4 L11.4,282.68 L11.4,282.959 L11.4,283.238 L11.4,283.517 L11.4,283.796 L11.4,284.075 L11.4,284.353 L11.4,284.631 L11.4,284.909 L11.4,285.186 L11.4,285.464 L11.4,285.741 L11.4,286.018 L11.4,286.294 L11.4,286.571 L11.4,286.847 L11.4,287.123 L11.4,287.399 L11.4,287.674 L11.4,287.949 L11.4,288.224 L11.4,288.499 L11.4,288.774 L11.4,289.048 L11.4,289.322 L11.4,289.596 L11.4,289.869 L11.4,290.143 L11.4,290.416 L11.4,290.689 L11.4,290.961 L11.4,291.234 L11.4,291.506 L11.4,291.778 L11.4,292.049 L11.4,292.32 L11.4,292.592 L11.4,292.862 L11.4,293.133 L11.4,293.403 L11.4,293.673 L11.4,293.943 L11.4,294.213 L11.4,294.482 L11.4,294.751 L11.4,295.02 L11.4,295.289 L11.4,295.557 L11.4,295.825 L11.4,296.093 L11.4,296.36 L11.4,296.627 L11.4,296.894 L11.4,297.161 L11.4,297.428 L11.4,297.694 L11.4,297.96 L11.4,298.225 L11.4,298.491 L11.4,298.756 L11.4,299.021 L11.4,299.285 L11.4,299.549 L11.4,299.813 L11.4,300.077 L11.4,300.341 L11.4,300.604 L11.4,300.867 L11.4,301.129 L11.4,301.392 L11.4,301.654 L11.4,301.916 L11.4,302.177 L11.4,302.438 L11.4,302.699 L11.4,302.96 L11.4,303.221 L11.4,303.481 L11.4,303.74 L11.4,304 C11.4,465.599 142.401,596.6 304,596.6 C465.599,596.6 596.6,465.599 596.6,304 C596.6,142.401 465.599,11.4 304,11.4 L152,11.4 Z" id="Path" stroke="url(#linearGradient-4)" stroke-width="22.8" style="mix-blend-mode: soft-light;"></path>
                </g>
            </g>
            <text id="Sip-Docs" font-family="HelveticaNeue-Medium, Helvetica Neue" font-size="614" font-weight="400" letter-spacing="28.3384615" fill="#FFFFFF">
                <tspan x="829" y="599">Sip </tspan>
                <tspan x="2034.04585" y="599" font-family="HelveticaNeue-Light, Helvetica Neue" font-weight="300">Docs</tspan>
            </text>
        </g>
    </g>
</svg>